<?xml version="1.0" encoding="utf-8"?>
<!-- Generator: Adobe Illustrator 26.1.0, SVG Export Plug-In . SVG Version: 6.00 Build 0)  -->
<svg version="1.1" id="Слой_2_1_" xmlns="http://www.w3.org/2000/svg" xmlns:xlink="http://www.w3.org/1999/xlink" x="0px"
	 y="0px" viewBox="0 0 500 500" style="enable-background:new 0 0 500 500;" xml:space="preserve">
<style type="text/css">
	.st0{fill:url(#Back_side_00000090270739466275205070000014717564355982207148_);}
	.st1{fill:url(#Back_side_shadow_00000000937013148748301450000006662508944834140551_);}
	.st2{fill:#E1E1E1;}
	.st3{fill:#F3F3F2;}
	.st4{fill:#FFFFFF;}
	.st5{fill:url(#Thickness_of_the_folder_00000137106157824012601740000005118698717182979513_);}
	.st6{fill:url(#Front_side_00000021091331132572947900000017041419021347605377_);}
	.st7{fill:#FF6A39;}
	.st8{fill:#FFFFFF;stroke:#000000;stroke-width:2.0897;stroke-miterlimit:10;}
	.st9{fill:none;stroke:#000000;stroke-width:1.9927;stroke-miterlimit:10;}
	.st10{fill:none;stroke:#000000;stroke-width:2.0897;stroke-miterlimit:10;}
	.st11{fill:#FFFFFF;stroke:#000000;stroke-width:2.0741;stroke-miterlimit:10;}
	.st12{fill:none;stroke:#000000;stroke-width:1.9241;stroke-miterlimit:10;}
	.st13{fill:#FEC619;stroke:#000000;stroke-width:2.0897;stroke-miterlimit:10;}
	.st14{fill:#FFFFFF;stroke:#000000;stroke-width:2.2277;stroke-miterlimit:10;}
</style>
<g>
	
		<linearGradient id="Back_side_00000113335434712737675120000015270346905238424721_" gradientUnits="userSpaceOnUse" x1="300.2356" y1="123.4315" x2="250.7881" y2="550.5456">
		<stop  offset="0" style="stop-color:#F2C45C"/>
		<stop  offset="0.905" style="stop-color:#6C3800"/>
		<stop  offset="0.9284" style="stop-color:#753E08"/>
		<stop  offset="0.9669" style="stop-color:#8E501D"/>
		<stop  offset="1" style="stop-color:#A96234"/>
	</linearGradient>
	<path id="Back_side" style="fill:url(#Back_side_00000113335434712737675120000015270346905238424721_);" d="M221.7,109.3
		c0.1,6.4,3.6,9.3,8.6,9.3h199.6c10.1,0,17.6,9.5,16.9,21.2l-15.9,232.8c0,0-0.6,10.8-25.2,22.6c-3,1.4-6.1,1.5-9.8,2.9
		c-1.1,0.4-3.8,0.2-4.9,0.2L142.2,391c-10.1,0-17.6-9.5-16.9-21.2l17.2-261.7c0.3-4.5,4.1-8.1,8.6-8.1h61.9
		C218.1,100,222.1,104.3,221.7,109.3L221.7,109.3z"/>
	
		<linearGradient id="Back_side_shadow_00000123408309317550775790000006120266415358051222_" gradientUnits="userSpaceOnUse" x1="296.0614" y1="105.568" x2="279.7718" y2="427.4296">
		<stop  offset="0" style="stop-color:#F2C45C"/>
		<stop  offset="5.032885e-02" style="stop-color:#E5B555"/>
		<stop  offset="0.1425" style="stop-color:#D2A04C"/>
		<stop  offset="0.2025" style="stop-color:#CB9848"/>
		<stop  offset="0.2238" style="stop-color:#C79446"/>
		<stop  offset="0.905" style="stop-color:#6C3800"/>
		<stop  offset="0.9284" style="stop-color:#753E08"/>
		<stop  offset="0.9669" style="stop-color:#8E501D"/>
		<stop  offset="1" style="stop-color:#A96234"/>
	</linearGradient>
	<path id="Back_side_shadow_1_" style="fill:url(#Back_side_shadow_00000123408309317550775790000006120266415358051222_);" d="
		M230.3,121.6c-3,0-12.5,0.7-12.5-8c0-10.3-2.1-10.5-14.1-10.5s-45.4,0-45.4,0s-10.7-1-10.7,9.6c0,10.5-1.9,35.8-1.9,35.8l0,0
		c-0.6,21.7,190,195.1,236.9,237.5c6.5,5.9,16,7,23.7,2.9c9.9-5.2,21.5-12.8,21.5-19c-0.1-9.7,12.2-193.9,14.6-228.7
		c0.4-5.6-1.4-11.1-5.2-15.2c-2.3-2.5-5.4-4.3-9.3-4.3H230.3z"/>
	<path id="Paper_3" class="st2" d="M136.5,379.5h269.5c10.1,0,18.8-8.2,19.4-18.2l12.1-197.9c0.6-10.1-7.1-18.2-17.2-18.2H150.8
		c-10.1,0-18.8,8.2-19.4,18.2l-12.1,197.9C118.7,371.3,126.4,379.5,136.5,379.5z"/>
	
		<image style="overflow:visible;" width="1273" height="930" id="Shadow_paper_2" xlink:href="C0A2C356.png"  transform="matrix(0.24 0 0 0.24 128.4 149.28)">
	</image>
	<path id="Paper_2" class="st3" d="M126.4,388.1h269.5c10.1,0,18.8-8.2,19.4-18.2L427.4,172c0.6-10.1-7.1-18.2-17.2-18.2H140.8
		c-10.1,0-18.8,8.2-19.4,18.2l-12.1,197.9C108.7,380,116.3,388.1,126.4,388.1z"/>
	
		<image style="overflow:visible;" width="1273" height="930" id="Shadow_paper_1" xlink:href="C0A2C355.png"  transform="matrix(0.24 0 0 0.24 117.12 156.48)">
	</image>
	<path id="Paper_1" class="st4" d="M112.1,396.7h269.5c10.1,0,18.8-8.2,19.4-18.2L413,180.6c0.6-10.1-7.1-18.2-17.2-18.2H126.4
		c-10.1,0-18.8,8.2-19.4,18.2L94.9,378.5C94.3,388.6,102,396.7,112.1,396.7z"/>
	
		<linearGradient id="Thickness_of_the_folder_00000127736629210494775230000011790785687649285274_" gradientUnits="userSpaceOnUse" x1="371.7368" y1="250.6306" x2="371.7368" y2="488.733">
		<stop  offset="0" style="stop-color:#F2C45C"/>
		<stop  offset="0.905" style="stop-color:#6C3800"/>
		<stop  offset="0.9284" style="stop-color:#753E08"/>
		<stop  offset="0.9669" style="stop-color:#8E501D"/>
		<stop  offset="1" style="stop-color:#A96234"/>
	</linearGradient>
	
		<path id="Thickness_of_the_folder" style="fill:url(#Thickness_of_the_folder_00000127736629210494775230000011790785687649285274_);" d="
		M399.7,377.6l-34.8-189.9c-1.8-10.1-11.5-18.2-21.6-18.2h-4.8l50.7,229.8l15.7-9.8C401.9,391.2,399.7,377.6,399.7,377.6z"/>
	
		<linearGradient id="Front_side_00000169527914378456801940000016097356101644733845_" gradientUnits="userSpaceOnUse" x1="205.6468" y1="180.935" x2="266.7303" y2="483.5105">
		<stop  offset="0" style="stop-color:#F2C45C"/>
		<stop  offset="0.905" style="stop-color:#6C3800"/>
		<stop  offset="0.9284" style="stop-color:#753E08"/>
		<stop  offset="0.9669" style="stop-color:#8E501D"/>
		<stop  offset="1" style="stop-color:#A96234"/>
	</linearGradient>
	<path id="Front_side" style="fill:url(#Front_side_00000169527914378456801940000016097356101644733845_);" d="M395,377.6
		l-34.8-189.9c-1.8-10.1-11.5-18.2-21.6-18.2H69.1c-10.1,0-16.8,8.2-14.9,18.2l35.7,193.7c1.8,10.1,11.5,18.2,21.6,18.2h269.5h6.1
		c6.3,0,12.6-1.5,18.3-4.3l0,0C398.4,398.5,395,377.6,395,377.6z"/>
	
		<image style="overflow:visible;opacity:0.3;" width="1184" height="56" id="Small_glare" xlink:href="C0A2C352.png"  transform="matrix(0.24 0 0 0.24 61.68 172.8)">
	</image>
	
		<image style="overflow:visible;opacity:0.3;" width="1260" height="820" id="Glare" xlink:href="C0A2C35D.png"  transform="matrix(0.24 0 0 0.24 71.52 186)">
	</image>
</g>
<g>
	<circle class="st7" cx="121.5" cy="360.9" r="49.3"/>
	<polygon class="st8" points="121.3,393.3 158.8,374.5 151.9,349.7 121.3,370.9 90.7,349.7 83.9,374.5 	"/>
	<polygon class="st8" points="121.3,385.9 152.1,370.5 146.5,350.1 121.3,367.5 96.1,350.1 90.5,370.5 	"/>
	<polygon class="st8" points="121.3,378.1 145.7,365.9 141.3,349.7 121.3,363.6 101.4,349.7 96.9,365.9 	"/>
	<g>
		<rect x="108.9" y="335.3" class="st4" width="27.1" height="57.2"/>
		<path class="st4" d="M134.9,341.5h-26.7c-5.8,0-10.5-4.7-10.5-10.5l0,0c0-5.8,4.7-10.5,10.5-10.5h26.7c5.8,0,10.5,4.7,10.5,10.5
			l0,0C145.3,336.8,140.6,341.5,134.9,341.5z"/>
		<path class="st9" d="M107.3,331.9c0-1.2,1-2.1,2.1-2.1s2.1,1,2.1,2.1c0,2.4-2,4.4-4.4,4.4c-2.4,0-4.4-2-4.4-4.4
			c0-3.6,2.9-6.6,6.6-6.6s6.6,2.9,6.6,6.6c0,4.9-3.9,8.8-8.8,8.8c-4.9,0-8.8-3.9-8.8-8.8l0,0c-0.3-6.1,4.3-10.7,9.7-10.6
			c9.2-2,18.2-2.1,27,0l0,0c5.4,0,10,4.6,9.7,10.6l0,0c0,4.9-3.9,8.8-8.8,8.8c-4.9,0-8.8-3.9-8.8-8.8c0-3.6,2.9-6.6,6.6-6.6
			s6.6,2.9,6.6,6.6c0,2.4-2,4.4-4.4,4.4c-2.4,0-4.4-2-4.4-4.4c0-1.2,1-2.1,2.1-2.1s2.1,1,2.1,2.1"/>
		<line class="st9" x1="108.9" y1="325.3" x2="133.7" y2="325.3"/>
		<line class="st9" x1="115.1" y1="330.3" x2="127.5" y2="330.3"/>
		<line class="st9" x1="115.1" y1="335.3" x2="127.5" y2="335.3"/>
		<g>
			<polyline class="st10" points="108,340.3 108,392.6 135.1,392.6 135.1,340.3 			"/>
			<line class="st10" x1="117" y1="335.3" x2="117" y2="392.6"/>
			<line class="st10" x1="126.1" y1="335.3" x2="126.1" y2="392.6"/>
		</g>
		<path class="st8" d="M100.2,398.1"/>
	</g>
	<path class="st11" d="M144.8,394.2v2.4c-0.1,0.1-0.2,0.1-0.3,0.2c-0.7,0.5-1.4,0.9-2.1,1.3c0,0,0,0,0,0c-5.9,3.4-12.6,5.4-19.7,5.6
		c-0.4,0-0.8,0-1.1,0c-0.4,0-0.8,0-1.2,0c-7.2-0.2-13.9-2.2-19.7-5.6c0,0-0.1,0-0.1-0.1h0c-0.8-0.5-1.6-0.9-2.3-1.4v-2.4
		c0-0.9,0.7-1.7,1.7-1.7h43.3C144.1,392.6,144.8,393.3,144.8,394.2z"/>
	<path class="st12" d="M164.5,360.9c0,15-7.7,28.1-19.3,35.8c-0.1,0.1-0.2,0.1-0.3,0.2c-0.7,0.5-1.4,0.9-2.1,1.3c0,0,0,0,0,0
		c-5.9,3.4-12.8,5.4-20,5.6c-0.4,0-0.8,0-1.2,0c-0.4,0-0.8,0-1.2,0c-7.3-0.2-14.1-2.2-20-5.6c0,0-0.1,0-0.1-0.1h0
		c-0.8-0.5-1.6-0.9-2.3-1.4c-0.2-0.2-0.5-0.3-0.7-0.5c-11.2-7.7-18.6-20.7-18.6-35.3c0-16.7,9.5-31.1,23.4-38.2h0
		c1.3-0.7,2.6-1.2,3.9-1.8h0c0,0,0,0,0,0c4.8-1.9,10.1-2.9,15.5-2.9c5.5,0,10.7,1,15.5,2.9c0,0,0,0,0,0h0c0,0,0,0,0,0
		c1.3,0.5,2.6,1.1,3.9,1.8h0C154.9,329.7,164.5,344.2,164.5,360.9z"/>
	<path class="st13" d="M145.4,313.9L145.4,313.9c-1.6-0.8-3.2-1.5-4.8-2.2c0,0,0,0,0,0h0c0,0,0,0,0,0c-5.9-2.3-12.4-3.6-19.1-3.6
		c-6.7,0-13.2,1.3-19.1,3.6c0,0,0,0,0,0h0c-1.7,0.6-3.3,1.4-4.8,2.2h0c-17.1,8.7-28.8,26.5-28.8,46.9c0,18,9,33.9,22.8,43.4
		c0.3,0.2,0.6,0.4,0.9,0.6c0.9,0.6,1.9,1.2,2.9,1.8h0c0,0,0.1,0,0.1,0.1c7.3,4.1,15.6,6.6,24.6,6.9c0.5,0,1,0,1.5,0c0.5,0,1,0,1.4,0
		c8.9-0.2,17.3-2.7,24.6-6.9c0,0,0,0,0.1,0c0.9-0.5,1.7-1,2.6-1.6c0.1-0.1,0.2-0.2,0.4-0.2c14.2-9.4,23.6-25.6,23.6-43.9
		C174.2,340.4,162.5,322.6,145.4,313.9z M145.2,396.7c-0.1,0.1-0.2,0.1-0.3,0.2c-0.7,0.5-1.4,0.9-2.1,1.3c0,0,0,0,0,0
		c-5.9,3.4-12.8,5.4-20,5.6c-0.4,0-0.8,0-1.2,0c-0.4,0-0.8,0-1.2,0c-7.3-0.2-14.1-2.2-20-5.6c0,0-0.1,0-0.1-0.1h0
		c-0.8-0.5-1.6-0.9-2.3-1.4c-0.2-0.2-0.5-0.3-0.7-0.5c-11.2-7.7-18.6-20.7-18.6-35.3c0-16.7,9.5-31.1,23.4-38.2h0
		c1.3-0.7,2.6-1.2,3.9-1.8h0c0,0,0,0,0,0c4.8-1.9,10.1-2.9,15.5-2.9c5.5,0,10.7,1,15.5,2.9c0,0,0,0,0,0h0c0,0,0,0,0,0
		c1.3,0.5,2.6,1.1,3.9,1.8h0c13.9,7.1,23.4,21.6,23.4,38.2C164.5,375.8,156.8,389,145.2,396.7z"/>
	<path class="st10" d="M164.5,360.9c0,15-7.7,28.1-19.3,35.8c-0.1,0.1-0.2,0.1-0.3,0.2c-0.7,0.5-1.4,0.9-2.1,1.3c0,0,0,0,0,0
		c-5.9,3.4-12.8,5.4-20,5.6c-0.4,0-0.8,0-1.2,0c-0.4,0-0.8,0-1.2,0c-7.3-0.2-14.1-2.2-20-5.6c0,0-0.1,0-0.1-0.1h0
		c-0.8-0.5-1.6-0.9-2.3-1.4c-0.2-0.2-0.5-0.3-0.7-0.5c-11.2-7.7-18.6-20.7-18.6-35.3c0-16.7,9.5-31.1,23.4-38.2h0
		c1.3-0.7,2.6-1.2,3.9-1.8h0c0,0,0,0,0,0c4.8-1.9,10.1-2.9,15.5-2.9c5.5,0,10.7,1,15.5,2.9c0,0,0,0,0,0h0c0,0,0,0,0,0
		c1.3,0.5,2.6,1.1,3.9,1.8h0C154.9,329.7,164.5,344.2,164.5,360.9z"/>
	<line class="st14" x1="98.8" y1="396.8" x2="144.3" y2="396.8"/>
</g>
</svg>
